# Blender v3.1.2 OBJ File: ''
# www.blender.org
mtllib kocka.mtl
o Cube
v 1.000000 0.543359 -0.778070
v 1.000000 -0.543359 -0.778070
v 1.000000 0.543359 0.778070
v 1.000000 -0.543359 0.778070
v -1.000000 0.543359 -0.778070
v -1.000000 -0.543359 -0.778070
v -1.000000 0.543359 0.778070
v -1.000000 -0.543359 0.778070
v 3.947110 0.000000 0.000000
v -2.068930 0.000000 -4.454833
v -0.377988 0.000000 -4.454830
v -0.377988 0.000000 4.454830
v -2.068930 0.000000 4.454830
vt 0.875000 0.500000
vt 0.625000 0.750000
vt 0.625000 0.500000
vt 0.625000 0.000000
vt 0.375000 0.000000
vt 0.625000 0.000000
vt 0.375000 0.250000
vt 0.375000 0.500000
vt 0.125000 0.750000
vt 0.125000 0.500000
vt 0.375000 0.750000
vt 0.625000 0.750000
vt 0.375000 0.500000
vt 0.625000 0.500000
vt 0.875000 0.500000
vt 0.375000 0.500000
vt 0.375000 0.750000
vt 0.625000 0.500000
vt 0.625000 0.250000
vt 0.375000 0.250000
vt 0.375000 0.750000
vt 0.125000 0.750000
vt 0.875000 0.750000
vt 0.625000 0.750000
vt 0.125000 0.500000
vt 0.875000 0.750000
vn 0.0000 1.0000 0.0000
vn -0.9602 0.0000 -0.2792
vn -1.0000 0.0000 0.0000
vn 0.0000 -1.0000 0.0000
vn 0.2553 0.0000 0.9669
vn 0.0000 -0.9893 -0.1462
vn 0.0000 0.9893 -0.1462
vn 0.2553 0.0000 -0.9669
vn 0.1813 -0.9834 0.0000
vn 0.1813 0.9834 0.0000
vn 0.9364 0.0000 -0.3509
vn -0.9602 0.0000 0.2792
vn 0.0000 -0.9893 0.1462
vn 0.0000 0.9893 0.1462
vn 0.9364 0.0000 0.3509
usemtl Material
s off
f 5/1/1 3/2/1 1/3/1
f 7/4/2 8/5/2 13/6/2
f 7/4/3 6/7/3 8/5/3
f 2/8/4 8/9/4 6/10/4
f 3/2/5 4/11/5 9/12/5
f 6/10/6 11/13/6 2/8/6
f 5/1/7 11/14/7 10/15/7
f 2/8/8 1/3/8 9/16/8
f 4/11/9 2/8/9 9/17/9
f 1/3/10 3/2/10 9/18/10
f 1/3/11 2/8/11 11/14/11
f 6/7/12 5/19/12 10/20/12
f 8/9/13 12/21/13 13/22/13
f 7/23/14 12/24/14 3/2/14
f 4/11/15 3/2/15 12/21/15
f 5/1/1 7/23/1 3/2/1
f 7/4/3 5/19/3 6/7/3
f 2/8/4 4/11/4 8/9/4
f 6/10/6 10/25/6 11/13/6
f 5/1/7 1/3/7 11/14/7
f 8/9/13 4/11/13 12/21/13
f 7/23/14 13/26/14 12/24/14
